<svg width="64" height="64" viewBox="0 0 64 64" fill="none" xmlns="http://www.w3.org/2000/svg">
<circle cx="25.5" cy="25.5" r="23.5" stroke="#FFCC00" stroke-width="4"/>
<circle cx="25.5" cy="25.5" r="15.5" fill="#FFCC00"/>
<line x1="61.55" y1="61.3775" x2="42.55" y2="41.3775" stroke="#FFCC00" stroke-width="4"/>
<path d="M26.2279 24.642C27.2219 24.95 28.0199 25.244 28.6219 25.524C29.2379 25.804 29.7559 26.231 30.1759 26.805C30.6099 27.365 30.8269 28.114 30.8269 29.052C30.8269 29.78 30.6379 30.459 30.2599 31.089C29.8959 31.705 29.3429 32.202 28.6009 32.58C27.8589 32.958 26.9489 33.147 25.8709 33.147H25.8289V34.827H25.1149V33.105C23.7289 32.993 22.5949 32.559 21.7129 31.803C20.8309 31.033 20.3409 30.06 20.2429 28.884H22.8049C22.8609 29.43 23.0849 29.927 23.4769 30.375C23.8829 30.823 24.4289 31.103 25.1149 31.215V26.448C23.9669 26.098 23.0919 25.797 22.4899 25.545C21.8879 25.279 21.3559 24.859 20.8939 24.285C20.4319 23.711 20.2009 22.941 20.2009 21.975C20.2009 21.191 20.4039 20.498 20.8099 19.896C21.2299 19.294 21.8109 18.825 22.5529 18.489C23.2949 18.153 24.1489 17.985 25.1149 17.985V16.2H25.8289V18.006C27.2009 18.104 28.2929 18.51 29.1049 19.224C29.9169 19.938 30.3859 20.841 30.5119 21.933H27.9289C27.8449 21.429 27.6209 20.995 27.2569 20.631C26.9069 20.253 26.4309 20.008 25.8289 19.896V24.516L26.2279 24.642ZM22.7629 21.891C22.7629 22.507 22.9659 22.997 23.3719 23.361C23.7779 23.711 24.3589 24.019 25.1149 24.285V19.833C24.3869 19.847 23.8129 20.036 23.3929 20.4C22.9729 20.75 22.7629 21.247 22.7629 21.891ZM25.8289 31.278C26.5989 31.278 27.1939 31.075 27.6139 30.669C28.0479 30.263 28.2649 29.745 28.2649 29.115C28.2649 28.471 28.0549 27.974 27.6349 27.624C27.2149 27.26 26.6129 26.945 25.8289 26.679V31.278Z" fill="black"/>
</svg>
