<svg xmlns="http://www.w3.org/2000/svg" width="20" height="20" viewBox="0 0 20 20" fill="none"><path d="M15.1563 13.5937L19.8443 18.2817L18.4301 19.6959L13.7421 15.0079L15.1563 13.5937Z" fill="white"></path><path fill-rule="evenodd" clip-rule="evenodd" d="M4.80703 13.7167C7.26737 16.177 11.2564 16.177 13.7167 13.7167C16.177 11.2564 16.177 7.26738 13.7167 4.80704C11.2564 2.34671 7.26737 2.34671 4.80703 4.80704C2.3467 7.26738 2.3467 11.2564 4.80703 13.7167ZM3.39282 15.1309C6.6342 18.3723 11.8895 18.3723 15.1309 15.1309C18.3723 11.8895 18.3723 6.63421 15.1309 3.39283C11.8895 0.151447 6.6342 0.151447 3.39282 3.39283C0.151439 6.63421 0.151439 11.8895 3.39282 15.1309Z" fill="white"></path></svg>