<svg width="64" height="64" viewBox="0 0 64 64" fill="none" xmlns="http://www.w3.org/2000/svg">
<rect x="1.5" y="62.5" width="28" height="28" rx="14" transform="rotate(-90 1.5 62.5)" fill="#FFCC00" stroke="#FFCC00" stroke-width="3"/>
<rect x="34.5" y="62.5" width="28" height="28" rx="14" transform="rotate(-90 34.5 62.5)" fill="#FFCC00" stroke="#FFCC00" stroke-width="3"/>
<rect x="1.5" y="29.5" width="28" height="28" rx="14" transform="rotate(-90 1.5 29.5)" fill="#FFCC00" stroke="#FFCC00" stroke-width="3"/>
<rect x="34.5" y="29.5" width="28" height="28" rx="14" transform="rotate(-90 34.5 29.5)" fill="#FFCC00" stroke="#FFCC00" stroke-width="3"/>
<path d="M23 15.5C23 11.3579 19.6421 8 15.5 8C11.3579 8 8 11.3579 8 15.5C8 19.2434 10.7426 22.3462 14.3281 22.9089V17.668H12.4238V15.5H14.3281V13.8477C14.3281 11.968 15.4479 10.9297 17.161 10.9297C17.9813 10.9297 18.8398 11.0762 18.8398 11.0762V12.9219H17.8941C16.9625 12.9219 16.6719 13.5 16.6719 14.0938V15.5H18.752L18.4194 17.668H16.6719V22.9089C20.2574 22.3462 23 19.2434 23 15.5Z" fill="black"/>
<g clip-path="url(#clip0)">
<path d="M45.7188 21.5937C51.3778 21.5937 54.4739 16.9042 54.4739 12.8386C54.4739 12.7068 54.471 12.572 54.4651 12.4402C55.0674 12.0046 55.5872 11.4651 56 10.847C55.4391 11.0966 54.8435 11.2596 54.2337 11.3304C54.8758 10.9455 55.3566 10.3409 55.5869 9.62857C54.9828 9.98657 54.3222 10.2391 53.6334 10.3754C53.1693 9.8822 52.5556 9.55567 51.8873 9.44625C51.219 9.33684 50.5332 9.45063 49.9361 9.77003C49.3389 10.0894 48.8636 10.5967 48.5837 11.2133C48.3037 11.8299 48.2346 12.5216 48.3872 13.1814C47.1641 13.12 45.9675 12.8023 44.875 12.2488C43.7825 11.6953 42.8186 10.9184 42.0456 9.96842C41.6527 10.6457 41.5325 11.4472 41.7094 12.21C41.8863 12.9728 42.3469 13.6396 42.9978 14.075C42.5091 14.0594 42.0312 13.9279 41.6035 13.6912V13.7293C41.6031 14.4401 41.8488 15.1291 42.2989 15.6792C42.7491 16.2293 43.3758 16.6066 44.0727 16.7468C43.62 16.8707 43.145 16.8887 42.6843 16.7996C42.8809 17.4109 43.2635 17.9455 43.7786 18.3289C44.2937 18.7123 44.9157 18.9253 45.5577 18.9382C44.4678 19.7944 43.1214 20.2588 41.7354 20.2566C41.4896 20.2562 41.244 20.2412 41 20.2115C42.408 21.1148 44.046 21.5946 45.7188 21.5937Z" fill="black"/>
</g>
<path d="M48.5 42.3506C50.5039 42.3506 50.7412 42.3594 51.5293 42.3945C52.2617 42.4268 52.6572 42.5498 52.9209 42.6523C53.2695 42.7871 53.5215 42.9512 53.7822 43.2119C54.0459 43.4756 54.207 43.7246 54.3418 44.0732C54.4443 44.3369 54.5674 44.7354 54.5996 45.4648C54.6348 46.2559 54.6436 46.4932 54.6436 48.4941C54.6436 50.498 54.6348 50.7354 54.5996 51.5234C54.5674 52.2559 54.4443 52.6514 54.3418 52.915C54.207 53.2637 54.043 53.5156 53.7822 53.7764C53.5186 54.04 53.2695 54.2012 52.9209 54.3359C52.6572 54.4385 52.2588 54.5615 51.5293 54.5938C50.7383 54.6289 50.501 54.6377 48.5 54.6377C46.4961 54.6377 46.2588 54.6289 45.4707 54.5938C44.7383 54.5615 44.3428 54.4385 44.0791 54.3359C43.7305 54.2012 43.4785 54.0371 43.2178 53.7764C42.9541 53.5127 42.793 53.2637 42.6582 52.915C42.5557 52.6514 42.4326 52.2529 42.4004 51.5234C42.3652 50.7324 42.3564 50.4951 42.3564 48.4941C42.3564 46.4902 42.3652 46.2529 42.4004 45.4648C42.4326 44.7324 42.5557 44.3369 42.6582 44.0732C42.793 43.7246 42.957 43.4727 43.2178 43.2119C43.4814 42.9482 43.7305 42.7871 44.0791 42.6523C44.3428 42.5498 44.7412 42.4268 45.4707 42.3945C46.2588 42.3594 46.4961 42.3506 48.5 42.3506ZM48.5 41C46.4639 41 46.209 41.0088 45.4092 41.0439C44.6123 41.0791 44.0645 41.208 43.5898 41.3926C43.0947 41.5859 42.6758 41.8408 42.2598 42.2598C41.8408 42.6758 41.5859 43.0947 41.3926 43.5869C41.208 44.0645 41.0791 44.6094 41.0439 45.4062C41.0088 46.209 41 46.4639 41 48.5C41 50.5361 41.0088 50.791 41.0439 51.5908C41.0791 52.3877 41.208 52.9355 41.3926 53.4102C41.5859 53.9053 41.8408 54.3242 42.2598 54.7402C42.6758 55.1562 43.0947 55.4141 43.5869 55.6045C44.0645 55.7891 44.6094 55.918 45.4062 55.9531C46.2061 55.9883 46.4609 55.9971 48.4971 55.9971C50.5332 55.9971 50.7881 55.9883 51.5879 55.9531C52.3848 55.918 52.9326 55.7891 53.4072 55.6045C53.8994 55.4141 54.3184 55.1562 54.7344 54.7402C55.1504 54.3242 55.4082 53.9053 55.5986 53.4131C55.7832 52.9355 55.9121 52.3906 55.9473 51.5938C55.9824 50.7939 55.9912 50.5391 55.9912 48.5029C55.9912 46.4668 55.9824 46.2119 55.9473 45.4121C55.9121 44.6152 55.7832 44.0674 55.5986 43.5928C55.4141 43.0947 55.1592 42.6758 54.7402 42.2598C54.3242 41.8438 53.9053 41.5859 53.4131 41.3955C52.9355 41.2109 52.3906 41.082 51.5938 41.0469C50.791 41.0088 50.5361 41 48.5 41Z" fill="black"/>
<path d="M48.5 44.6475C46.373 44.6475 44.6475 46.373 44.6475 48.5C44.6475 50.627 46.373 52.3525 48.5 52.3525C50.627 52.3525 52.3525 50.627 52.3525 48.5C52.3525 46.373 50.627 44.6475 48.5 44.6475ZM48.5 50.999C47.1201 50.999 46.001 49.8799 46.001 48.5C46.001 47.1201 47.1201 46.001 48.5 46.001C49.8799 46.001 50.999 47.1201 50.999 48.5C50.999 49.8799 49.8799 50.999 48.5 50.999Z" fill="black"/>
<path d="M53.4043 44.4951C53.4043 44.9932 53 45.3945 52.5049 45.3945C52.0068 45.3945 51.6055 44.9902 51.6055 44.4951C51.6055 43.9971 52.0098 43.5957 52.5049 43.5957C53 43.5957 53.4043 44 53.4043 44.4951Z" fill="black"/>
<g clip-path="url(#clip1)">
<path fill-rule="evenodd" clip-rule="evenodd" d="M18.527 45.0924C17.7526 44.3539 16.7192 43.9515 15.6499 43.968C13.6933 43.968 12.0315 45.2881 11.439 47.0656C11.1248 47.9971 11.1248 49.0057 11.439 49.9372H11.4417C12.037 51.712 13.696 53.032 15.6527 53.032C16.6627 53.032 17.5298 52.7737 18.2018 52.3173V52.3155C18.9927 51.7919 19.5329 50.9679 19.701 50.0364H15.6499V47.1483H22.7241C22.8123 47.6499 22.8537 48.1625 22.8537 48.6723C22.8537 50.9534 22.0384 52.8821 20.6199 54.1883L20.6214 54.1894C19.3785 55.3359 17.6727 56 15.6499 56C12.8141 56 10.2209 54.4016 8.94771 51.869C7.88396 49.7498 7.88397 47.253 8.94772 45.1338C10.2209 42.5984 12.8141 41 15.6499 41C17.5128 40.978 19.3124 41.678 20.6683 42.9511L18.527 45.0924Z" fill="black"/>
</g>
<defs>
<clipPath id="clip0">
<rect width="15" height="15" fill="white" transform="translate(41 8)"/>
</clipPath>
<clipPath id="clip1">
<rect width="15" height="15" fill="white" transform="translate(8 41)"/>
</clipPath>
</defs>
</svg>
