<svg width="64" height="64" viewBox="0 0 64 64" fill="none" xmlns="http://www.w3.org/2000/svg">
<mask id="path-1-inside-1" fill="white">
<path d="M4.29296e-07 24C0.00010996 7 7.27418e-07 64 7.27418e-07 64L64 64C64 64 64 11 64 24L32.5 5.50285L4.29296e-07 24Z"/>
</mask>
<path d="M4.29296e-07 24C0.00010996 7 7.27418e-07 64 7.27418e-07 64L64 64C64 64 64 11 64 24L32.5 5.50285L4.29296e-07 24Z" fill="#FFCC00"/>
<path d="M4.29296e-07 24L-4 24L-4.00004 30.8791L1.97856 27.4764L4.29296e-07 24ZM7.27418e-07 64L-4 64L-4.00001 68L6.79718e-07 68L7.27418e-07 64ZM64 64L64 68L68 68L68 64L64 64ZM64 24L61.9746 27.4493L68 30.9875L68 24L64 24ZM32.5 5.50285L34.5254 2.05357L32.5313 0.882573L30.5214 2.02646L32.5 5.50285ZM4 24C4.00001 21.8748 4.00002 20.9064 4.00003 20.8383C4.00003 20.8356 4.00003 20.8356 4.00003 20.8365C0.0078947 24.8339 -3.99995 20.8439 -3.99997 20.8361C-3.99997 20.8359 -3.99997 20.8357 -3.99997 20.8362C-3.99997 20.8386 -3.99997 20.8445 -3.99997 20.8541C-3.99996 20.8732 -3.99996 20.9058 -3.99996 20.9515C-3.99996 21.043 -3.99996 21.1867 -3.99996 21.3787C-3.99996 21.7627 -3.99995 22.3399 -3.99995 23.0781C-3.99995 26.0312 -3.99995 31.5625 -3.99996 37.625C-3.99997 43.6875 -3.99998 50.2812 -3.99998 55.3594C-3.99999 57.8984 -3.99999 60.0586 -3.99999 61.584C-4 62.3467 -4 62.9507 -4 63.364C-4 63.5707 -4 63.7297 -4 63.837C-4 63.8907 -4 63.9314 -4 63.9587C-4 63.9724 -4 63.9827 -4 63.9896C-4 63.9931 -4 63.9957 -4 63.9974C-4 63.9983 -4 63.9989 -4 63.9993C-4 63.9998 -4 64 7.27418e-07 64C4 64 4 63.9998 4 63.9994C4 63.9989 4 63.9983 4 63.9974C4 63.9957 4 63.9931 4 63.9896C4 63.9827 4 63.9724 4 63.9588C4 63.9314 4 63.8907 4 63.837C4 63.7297 4 63.5707 4 63.364C4 62.9507 4 62.3467 4.00001 61.584C4.00001 60.0586 4.00001 57.8984 4.00002 55.3594C4.00002 50.2813 4.00004 43.6875 4.00004 37.625C4.00005 31.5625 4.00005 26.0313 4.00005 23.0781C4.00005 22.3398 4.00004 21.7627 4.00004 21.3786C4.00004 21.1866 4.00004 21.0429 4.00004 20.9514C4.00004 20.9056 4.00004 20.8729 4.00003 20.8538C4.00003 20.8443 4.00003 20.8379 4.00003 20.8349C4.00003 20.8341 4.00003 20.833 4.00003 20.8323C4.00002 20.824 -0.0078293 16.8339 -3.99997 20.8317C-3.99997 20.8334 -3.99997 20.8359 -3.99997 20.8375C-3.99998 20.9061 -3.99999 21.8752 -4 24L4 24ZM6.79718e-07 68L64 68L64 60L7.75117e-07 60L6.79718e-07 68ZM64 64C68 64 68 63.9998 68 63.9994C68 63.999 68 63.9984 68 63.9976C68 63.9964 68 63.9932 68 63.9904C68 63.9838 68 63.9745 68 63.9616C68 63.9361 68 63.8984 68 63.8484C68 63.7485 68 63.6005 68 63.408C68 63.023 68 62.46 68 61.748C68 60.3242 68 58.3047 68 55.9219C68 51.1562 68 44.9375 68 39.125C68 33.3125 68 27.9063 68 24.7656C68 23.1953 68 22.1914 68 21.9863C68 21.9608 68 21.9475 68 21.9471C63.9999 17.9473 60 21.9474 60 21.9478C60 21.9482 60 21.9488 60 21.9496C60 21.9512 60 21.9535 60 21.9567C60 21.9632 60 21.9729 60 21.9859C60 22.0381 60 22.1439 60 22.3069C60 22.6328 60 23.1875 60 24L68 24C68 23.1875 68 22.6328 68 22.3069C68 22.1439 68 22.0381 68 21.9859C68 21.9729 68 21.9632 68 21.9568C68 21.9536 68 21.9512 68 21.9496C68 21.9488 68 21.9482 68 21.9479C68 21.9475 64.0001 25.9473 60 21.9475C60 21.9475 60 21.9506 60 21.9573C60 21.9638 60 21.9735 60 21.9863C60 22.1914 60 23.1953 60 24.7656C60 27.9063 60 33.3125 60 39.125C60 44.9375 60 51.1563 60 55.9219C60 58.3047 60 60.3242 60 61.748C60 62.46 60 63.0229 60 63.408C60 63.6005 60 63.7485 60 63.8484C60 63.8981 60 63.9364 60 63.9616C60 63.974 60 63.9843 60 63.9904C60 63.9942 60 63.9953 60 63.9976C60 63.9984 60 63.999 60 63.9994C60 63.9998 60 64 64 64ZM66.0255 20.5507L34.5254 2.05357L30.4745 8.95213L61.9746 27.4493L66.0255 20.5507ZM30.5214 2.02646L-1.97856 20.5236L1.97856 27.4764L34.4786 8.97924L30.5214 2.02646Z" fill="#FFCC00" mask="url(#path-1-inside-1)"/>
<rect x="54" y="2" width="60" height="44" transform="rotate(90 54 2)" fill="black" stroke="#FFCC00" stroke-width="4"/>
<circle cx="32.5" cy="10.5" r="2.5" fill="#FFCC00"/>
<line x1="48" y1="16" x2="16" y2="16" stroke="#FFCC00" stroke-width="2"/>
<line x1="48" y1="20" x2="16" y2="20" stroke="#FFCC00" stroke-width="2"/>
<path d="M32 24L16 24" stroke="#FFCC00" stroke-width="2"/>
<path d="M62 27.4395L62 50.375L62 60.1406L62 62L1.99999 62L1.99999 61.9551L1.99999 61.909L1.99999 61.8624L1.99999 61.8154L1.99999 61.7678L1.99999 61.7199L1.99999 61.6714L1.99999 61.6226L1.99999 61.5733L1.99999 61.5235L1.99999 61.4733L1.99999 61.4226L1.99999 61.3715L1.99999 61.32L1.99999 61.268L1.99999 61.2156L1.99999 61.1627L1.99999 61.1094L1.99999 61.0557L1.99999 61.0016L1.99999 60.947L1.99999 60.892L1.99999 60.8366L1.99999 60.7807L1.99999 60.7245L1.99999 60.6678L1.99999 60.6107L1.99999 60.5532L1.99999 60.4953L1.99999 60.4369L1.99999 60.3782L1.99999 60.319L1.99999 60.2595L1.99999 60.1995L1.99999 60.1392L1.99999 60.0784L1.99999 60.0172L1.99999 59.9557L1.99999 59.8937L1.99999 59.8314L1.99999 59.7687L1.99999 59.7055L1.99999 59.642L1.99999 59.5781L1.99999 59.5139L1.99999 59.4492L1.99999 59.3842L1.99999 59.3187L1.99999 59.2529L1.99999 59.1868L1.99999 59.1202L1.99999 59.0533L1.99999 58.986L1.99999 58.9184L1.99999 58.8504L1.99999 58.782L1.99999 58.7133L1.99999 58.6442L1.99999 58.5747L1.99999 58.5049L1.99999 58.4348L1.99999 58.3642L1.99999 58.2934L1.99999 58.2222L1.99999 58.1506L1.99999 58.0787L1.99999 58.0064L1.99999 57.9339L1.99999 57.8609L1.99999 57.7877L1.99999 57.7141L1.99999 57.6401L1.99999 57.5658L1.99999 57.4913L1.99999 57.4163L1.99999 57.3411L1.99999 57.2655L1.99999 57.1896L1.99999 57.1134L1.99999 57.0368L1.99999 56.96L1.99999 56.8828L1.99999 56.8053L1.99999 56.7275L1.99999 56.6494L1.99999 56.571L1.99999 56.4922L1.99999 56.4132L1.99999 56.3339L1.99999 56.2543L1.99999 56.1743L1.99999 56.0941L1.99999 56.0136L1.99999 55.9327L1.99999 55.8516L1.99999 55.7702L1.99999 55.6885L1.99999 55.6066L1.99999 55.5243L1.99999 55.4418L1.99999 55.359L1.99999 55.2758L1.99999 55.1925L1.99999 55.1088L1.99999 55.0249L1.99999 54.9407L1.99999 54.8562L1.99999 54.7715L1.99999 54.6865L1.99999 54.6012L1.99999 54.5157L1.99999 54.4299L1.99999 54.3439L1.99999 54.2575L1.99999 54.171L1.99999 54.0842L1.99999 53.9971L1.99999 53.9098L1.99999 53.8222L1.99999 53.7344L1.99999 53.6464L1.99999 53.5581L1.99999 53.4695L1.99999 53.3808L1.99999 53.2918L1.99999 53.2025L1.99999 53.113L1.99999 53.0233L1.99999 52.9334L1.99999 52.8432L1.99999 52.7528L1.99999 52.6622L1.99999 52.5714L1.99999 52.4803L1.99999 52.389L1.99999 52.2975L1.99999 52.2058L1.99999 52.1139L1.99999 52.0218L1.99999 51.9294L1.99999 51.8369L1.99999 51.7441L1.99999 51.6512L1.99999 51.558L1.99999 51.4647L1.99999 51.3711L1.99999 51.2774L1.99999 51.1834L1.99999 51.0893L1.99999 50.9949L1.99999 50.9004L1.99999 50.8057L1.99999 50.7108L1.99999 50.6157L1.99999 50.5205L1.99999 50.425L1.99999 50.3294L1.99999 50.2336L1.99999 50.1376L1.99999 50.0415L1.99999 49.9452L1.99999 49.8487L1.99999 49.7521L1.99999 49.6552L1.99999 49.5583L1.99999 49.4611L1.99999 49.3638L1.99999 49.2664L1.99999 49.1688L1.99999 49.071L1.99999 48.9731L1.99999 48.875L1.99999 48.7768L1.99999 48.6784L1.99999 48.5799L1.99999 48.4813L1.99999 48.3825L1.99999 48.2835L1.99999 48.1844L1.99999 48.0852L1.99999 47.9859L1.99999 47.8864L1.99999 47.7868L1.99999 47.6871L1.99999 47.5872L1.99999 47.4872L1.99999 47.3871L1.99999 47.2869L1.99999 47.1865L1.99999 47.0861L1.99999 46.9855L1.99999 46.8848L1.99999 46.784L1.99999 46.6831L1.99999 46.582L1.99999 46.4809L1.99999 46.3797L1.99999 46.2783L1.99999 46.1769L1.99999 46.0753L1.99999 45.9737L1.99999 45.872L1.99999 45.7701L1.99999 45.6682L1.99999 45.5662L1.99999 45.4641L1.99999 45.3619L1.99999 45.2596L1.99999 45.1573L1.99999 45.0549L1.99999 44.9523L1.99999 44.8498L1.99999 44.7471L1.99999 44.6443L1.99999 44.5415L1.99999 44.4387L1.99999 44.3357L1.99999 44.2327L1.99999 44.1296L1.99999 44.0265L1.99999 43.9233L1.99999 43.82L1.99999 43.7167L1.99999 43.6133L1.99999 43.5099L1.99999 43.4064L1.99999 43.3029L1.99999 43.1993L1.99999 43.0957L1.99999 42.992L1.99999 42.8883L1.99999 42.7845L1.99999 42.6807L1.99999 42.5769L1.99999 42.473L1.99999 42.3691L1.99999 42.2652L1.99999 42.1613L1.99999 42.0573L1.99999 41.9533L1.99999 41.8492L1.99999 41.7452L1.99999 41.6411L1.99999 41.537L1.99999 41.4329L1.99999 41.3287L1.99999 41.2246L1.99999 41.1205L1.99999 41.0163L1.99999 40.9121L1.99999 40.8079L1.99999 40.7038L1.99999 40.5996L1.99999 40.4954L1.99999 40.3912L1.99999 40.287L1.99999 40.1829L1.99999 40.0787L1.99999 39.9745L1.99999 39.8704L1.99999 39.7663L1.99999 39.6622L1.99999 39.558L1.99999 39.454L1.99999 39.3499L1.99999 39.2459L1.99999 39.1418L1.99999 39.0378L1.99999 38.9339L1.99999 38.8299L1.99999 38.726L1.99999 38.6222L1.99999 38.5183L1.99999 38.4145L1.99999 38.3107L1.99999 38.207L1.99999 38.1033L1.99999 37.9997L1.99999 37.8961L1.99999 37.7926L1.99999 37.6891L1.99999 37.5856L1.99999 37.4822L1.99999 37.3789L1.99999 37.2756L1.99999 37.1724L1.99999 37.0692L1.99999 36.9661L1.99999 36.8631L1.99999 36.7601L1.99999 36.6572L1.99999 36.5543L1.99999 36.4516L1.99999 36.3489L1.99999 36.2463L1.99999 36.1437L1.99999 36.0413L1.99999 35.9389L1.99999 35.8366L1.99999 35.7344L1.99999 35.6322L1.99999 35.5302L1.99999 35.4283L1.99999 35.3264L1.99999 35.2246L1.99999 35.1229L1.99999 35.0214L1.99999 34.9199L1.99999 34.8185L1.99999 34.7172L1.99999 34.6161L1.99999 34.515L1.99999 34.4141L1.99999 34.3132L1.99999 34.2125L1.99999 34.1118L1.99999 34.0113L1.99999 33.9109L1.99999 33.8107L1.99999 33.7105L1.99999 33.6105L1.99999 33.5106L1.99999 33.4108L1.99999 33.3112L1.99999 33.2116L1.99999 33.1123L1.99999 33.013L1.99999 32.9139L1.99999 32.8149L1.99999 32.7161L1.99999 32.6174L1.99999 32.5188L1.99999 32.4204L1.99999 32.3221L1.99999 32.224L1.99999 32.126L1.99999 32.0282L1.99999 31.9305L1.99999 31.833L1.99999 31.7357L1.99999 31.6385L1.99999 31.5414L1.99999 31.4446L1.99999 31.3479L1.99999 31.2513L1.99999 31.155L1.99999 31.0588L1.99999 30.9627L1.99999 30.8669L1.99999 30.7712L1.99999 30.6757L1.99999 30.5804L1.99999 30.4852L1.99999 30.3903L1.99999 30.2955L1.99999 30.2009L1.99999 30.1065L1.99999 30.0123L1.99999 29.9183L1.99999 29.8245L1.99999 29.7309L1.99999 29.6374L1.99999 29.5442L1.99999 29.4512L1.99999 29.3583L1.99999 29.2657L1.99999 29.1733L1.99999 29.0811L1.99999 28.9891L1.99999 28.8973L1.99999 28.8058L1.99999 28.7144L1.99999 28.6233L1.99999 28.5324L1.99999 28.4417L1.99999 28.3512L1.99999 28.261L1.99999 28.171L1.99999 28.0812L1.99999 27.9916L1.99999 27.9023L1.99999 27.8132L1.99999 27.7243L1.99999 27.6357L1.99999 27.5473L1.99999 27.4937L30.4873 44.2218L31.4844 44.8073L32.4893 44.2353L62 27.4395Z" fill="black" stroke="#FFCC00" stroke-width="4"/>
<line x1="2.9986" y1="28.2671" x2="61.9986" y2="62.2671" stroke="#FFCC00" stroke-width="4"/>
<line x1="1.0014" y1="62.2671" x2="60.0014" y2="28.2671" stroke="#FFCC00" stroke-width="4"/>
</svg>
