<svg width="67" height="66" viewBox="0 0 67 66" fill="none" xmlns="http://www.w3.org/2000/svg">
<rect x="65" y="64" width="60" height="36" transform="rotate(-180 65 64)" stroke="#FFCC00" stroke-width="4"/>
<rect x="-1.41421" y="2.44949" width="60" height="9.00001" transform="matrix(-0.965926 0.258819 0.258819 0.965926 58.4051 0.44949)" stroke="#FFCC00" stroke-width="4"/>
<rect x="12.7085" y="13.7656" width="3" height="12.7282" transform="rotate(30 12.7085 13.7656)" fill="#FFCC00"/>
<rect x="22.3643" y="11.5881" width="3" height="12.7282" transform="rotate(30 22.3643 11.5881)" fill="#FFCC00"/>
<rect x="32.0239" y="9" width="3" height="12.7282" transform="rotate(30 32.0239 9)" fill="#FFCC00"/>
<rect x="41.6865" y="6.00098" width="3" height="12.7282" transform="rotate(30 41.6865 6.00098)" fill="#FFCC00"/>
<rect x="51.3457" y="3.41284" width="3" height="12.7282" transform="rotate(30 51.3457 3.41284)" fill="#FFCC00"/>
<rect x="58.7373" y="4.75269" width="3" height="8.19259" transform="rotate(30 58.7373 4.75269)" fill="#FFCC00"/>
<rect x="-2" y="2" width="60" height="9.00001" transform="matrix(-1 -8.74228e-08 -8.74228e-08 1 63 26)" stroke="#FFCC00" stroke-width="4"/>
<rect x="16" y="26.5857" width="3" height="12.7282" transform="rotate(45 16 26.5857)" fill="#FFCC00"/>
<rect x="26" y="26.5857" width="3" height="12.7282" transform="rotate(45 26 26.5857)" fill="#FFCC00"/>
<rect x="36" y="26.5857" width="3" height="12.7282" transform="rotate(45 36 26.5857)" fill="#FFCC00"/>
<rect x="46" y="26.5857" width="3" height="12.7282" transform="rotate(45 46 26.5857)" fill="#FFCC00"/>
<rect x="56" y="26.5857" width="3" height="12.7282" transform="rotate(45 56 26.5857)" fill="#FFCC00"/>
<rect x="62.793" y="29.793" width="3" height="8.19259" transform="rotate(45 62.793 29.793)" fill="#FFCC00"/>
</svg>
